<?xml version="1.0" encoding="utf-8"?>
<svg id="master-artboard" viewBox="0 0 109 48" version="1.1" xmlns="http://www.w3.org/2000/svg" x="0px" y="0px" style="enable-background:new 0 0 336 235.2;" width="109px" height="48px"><rect id="ee-background" x="0" y="0" width="109" height="48" style="fill: white; fill-opacity: 0; pointer-events: none;" transform="matrix(1, 0, 0, 1, 0, -1)"/><defs><style id="ee-google-fonts">@import url(https://fonts.googleapis.com/css?family=Wire+One:400);</style></defs><path d="M 178.03726196289062 224.56777954101562 C 178.03726196289062 225.48110961914062 177.92726135253906 226.37110900878906 177.70726013183594 227.23777770996094 C 177.49392700195312 228.1044464111328 177.13059997558594 228.88111877441406 176.6172637939453 229.56777954101562 C 176.110595703125 230.2544403076172 175.42393493652344 230.804443359375 174.55726623535156 231.2177734375 C 173.6905975341797 231.6377716064453 172.610595703125 231.8477783203125 171.3172607421875 231.8477783203125 L 164.72726440429688 231.8477783203125 L 164.72726440429688 187.03778076171875 L 171.3172607421875 187.03778076171875 C 172.610595703125 187.03778076171875 173.6905975341797 187.24444580078125 174.55726623535156 187.65777587890625 C 175.42393493652344 188.07777404785156 176.110595703125 188.631103515625 176.6172637939453 189.31777954101562 C 177.13059997558594 190.0044403076172 177.49392700195312 190.78445434570312 177.70726013183594 191.65777587890625 C 177.92726135253906 192.53111267089844 178.03726196289062 193.4277801513672 178.03726196289062 194.3477783203125 L 178.03726196289062 224.56777954101562 M 171.3172607421875 230.56777954101562 C 172.38392639160156 230.56777954101562 173.26393127441406 230.39111328125 173.95726013183594 230.03778076171875 C 174.65725708007812 229.6844482421875 175.21726989746094 229.2244415283203 175.63726806640625 228.65777587890625 C 176.05059814453125 228.0977783203125 176.34059143066406 227.45777893066406 176.50726318359375 226.73777770996094 C 176.67393493652344 226.0177764892578 176.75726318359375 225.29444885253906 176.75726318359375 224.56777954101562 L 176.75726318359375 194.3477783203125 C 176.75726318359375 193.62110900878906 176.67393493652344 192.8977813720703 176.50726318359375 192.1777801513672 C 176.34059143066406 191.45777893066406 176.05059814453125 190.8111114501953 175.63726806640625 190.23777770996094 C 175.21726989746094 189.66444396972656 174.65725708007812 189.20111083984375 173.95726013183594 188.8477783203125 C 173.26393127441406 188.49444580078125 172.38392639160156 188.31777954101562 171.3172607421875 188.31777954101562 L 166.00726318359375 188.31777954101562 L 166.00726318359375 230.56777954101562 L 171.3172607421875 230.56777954101562 ZM 196.04124450683594 213.87777709960938 L 184.13124084472656 213.87777709960938 L 184.13124084472656 225.12777709960938 C 184.13124084472656 225.88111877441406 184.2212371826172 226.62110900878906 184.4012451171875 227.3477783203125 C 184.57456970214844 228.07444763183594 184.8645782470703 228.7244415283203 185.271240234375 229.2977752685547 C 185.6779022216797 229.87110900878906 186.22457885742188 230.33444213867188 186.91123962402344 230.68777465820312 C 187.59791564941406 231.04110717773438 188.4412384033203 231.2177734375 189.4412384033203 231.2177734375 C 190.42123413085938 231.2177734375 191.24456787109375 231.06443786621094 191.91123962402344 230.75778198242188 C 192.57791137695312 230.44444274902344 193.1145782470703 230.03111267089844 193.521240234375 229.5177764892578 C 193.9279022216797 229.0111083984375 194.22457885742188 228.4244384765625 194.41123962402344 227.75778198242188 C 194.59791564941406 227.0911102294922 194.71456909179688 226.40110778808594 194.76124572753906 225.68777465820312 C 194.694580078125 225.62777709960938 194.6412353515625 225.54444885253906 194.6012420654297 225.43777465820312 C 194.56124877929688 225.33778381347656 194.54124450683594 225.2544403076172 194.54124450683594 225.18777465820312 C 194.54124450683594 224.9611053466797 194.62457275390625 224.7644500732422 194.79124450683594 224.5977783203125 C 194.95791625976562 224.4311065673828 195.15457153320312 224.3477783203125 195.38124084472656 224.3477783203125 C 195.6145782470703 224.3477783203125 195.8145751953125 224.4311065673828 195.9812469482422 224.5977783203125 C 196.1479034423828 224.7644500732422 196.2312469482422 224.9611053466797 196.2312469482422 225.18777465820312 C 196.2312469482422 225.2544403076172 196.21456909179688 225.33778381347656 196.18124389648438 225.43777465820312 C 196.1479034423828 225.54444885253906 196.1012420654297 225.62777709960938 196.04124450683594 225.68777465820312 C 195.97457885742188 226.56777954101562 195.8212432861328 227.41111755371094 195.58123779296875 228.2177734375 C 195.34791564941406 229.03111267089844 194.9812469482422 229.75111389160156 194.4812469482422 230.37777709960938 C 193.9812469482422 231.0044403076172 193.31790161132812 231.5111083984375 192.49124145507812 231.8977813720703 C 191.67123413085938 232.28443908691406 190.65457153320312 232.477783203125 189.4412384033203 232.477783203125 C 188.194580078125 232.477783203125 187.1479034423828 232.2611083984375 186.30123901367188 231.82777404785156 C 185.46124267578125 231.40110778808594 184.78457641601562 230.84445190429688 184.271240234375 230.15777587890625 C 183.7645721435547 229.4711151123047 183.4012451171875 228.6911163330078 183.18124389648438 227.81777954101562 C 182.96124267578125 226.94444274902344 182.8512420654297 226.0477752685547 182.8512420654297 225.12777709960938 L 182.8512420654297 206.56777954101562 C 182.8512420654297 205.6477813720703 182.96124267578125 204.75111389160156 183.18124389648438 203.87777709960938 C 183.4012451171875 203.0044403076172 183.7645721435547 202.2244415283203 184.271240234375 201.53778076171875 C 184.78457641601562 200.85110473632812 185.46124267578125 200.29444885253906 186.30123901367188 199.86778259277344 C 187.1479034423828 199.4344482421875 188.194580078125 199.2177734375 189.4412384033203 199.2177734375 C 190.694580078125 199.2177734375 191.7379150390625 199.4344482421875 192.5712432861328 199.86778259277344 C 193.40457153320312 200.29444885253906 194.08123779296875 200.85110473632812 194.6012420654297 201.53778076171875 C 195.12124633789062 202.2244415283203 195.49124145507812 203.0044403076172 195.71124267578125 203.87777709960938 C 195.93124389648438 204.75111389160156 196.04124450683594 205.6477813720703 196.04124450683594 206.56777954101562 L 196.04124450683594 213.87777709960938 M 194.76124572753906 212.5977783203125 L 194.76124572753906 206.56777954101562 C 194.76124572753906 205.83444213867188 194.6779022216797 205.1044464111328 194.51124572753906 204.37777709960938 C 194.34457397460938 203.65110778808594 194.0579071044922 203.00111389160156 193.6512451171875 202.4277801513672 C 193.24456787109375 201.8544464111328 192.69790649414062 201.3844451904297 192.01124572753906 201.0177764892578 C 191.32456970214844 200.65110778808594 190.46791076660156 200.4677734375 189.4412384033203 200.4677734375 C 188.4412384033203 200.4677734375 187.59791564941406 200.65110778808594 186.91123962402344 201.0177764892578 C 186.22457885742188 201.3844451904297 185.6779022216797 201.8544464111328 185.271240234375 202.4277801513672 C 184.8645782470703 203.00111389160156 184.57456970214844 203.65110778808594 184.4012451171875 204.37777709960938 C 184.2212371826172 205.1044464111328 184.13124084472656 205.83444213867188 184.13124084472656 206.56777954101562 L 184.13124084472656 212.5977783203125 L 194.76124572753906 212.5977783203125 ZM 213.6940460205078 231.12777709960938 C 213.82070922851562 231.29444885253906 213.88404846191406 231.4711151123047 213.88404846191406 231.65777587890625 C 213.88404846191406 231.89111328125 213.80072021484375 232.08444213867188 213.63404846191406 232.23777770996094 C 213.46737670898438 232.3977813720703 213.2673797607422 232.477783203125 213.03404235839844 232.477783203125 C 212.807373046875 232.477783203125 212.6173858642578 232.3977813720703 212.46405029296875 232.23777770996094 C 212.30404663085938 232.08444213867188 212.2240447998047 231.89111328125 212.2240447998047 231.65777587890625 C 212.2240447998047 231.4711151123047 212.28738403320312 231.29444885253906 212.41404724121094 231.12777709960938 L 212.41404724121094 206.56777954101562 C 212.41404724121094 205.83444213867188 212.33071899414062 205.1044464111328 212.16404724121094 204.37777709960938 C 211.99737548828125 203.65110778808594 211.71070861816406 203.00111389160156 211.30404663085938 202.4277801513672 C 210.8973846435547 201.8544464111328 210.3540496826172 201.3844451904297 209.67404174804688 201.0177764892578 C 209.00071716308594 200.65110778808594 208.14404296875 200.4677734375 207.1040496826172 200.4677734375 C 206.20404052734375 200.4677734375 205.42071533203125 200.65110778808594 204.75404357910156 201.0177764892578 C 204.08737182617188 201.3844451904297 203.53738403320312 201.8544464111328 203.1040496826172 202.4277801513672 C 202.66404724121094 203.00111389160156 202.33404541015625 203.65110778808594 202.11404418945312 204.37777709960938 C 201.89404296875 205.1044464111328 201.78404235839844 205.83444213867188 201.78404235839844 206.56777954101562 L 201.78404235839844 231.12777709960938 C 201.91070556640625 231.29444885253906 201.9740447998047 231.4711151123047 201.9740447998047 231.65777587890625 C 201.9740447998047 231.89111328125 201.89071655273438 232.08444213867188 201.7240447998047 232.23777770996094 C 201.557373046875 232.3977813720703 201.3607177734375 232.477783203125 201.13404846191406 232.477783203125 C 200.9007110595703 232.477783203125 200.70738220214844 232.3977813720703 200.55404663085938 232.23777770996094 C 200.4007110595703 232.08444213867188 200.3240509033203 231.89111328125 200.3240509033203 231.65777587890625 C 200.3240509033203 231.4711151123047 200.38404846191406 231.29444885253906 200.50404357910156 231.12777709960938 L 200.50404357910156 200.62777709960938 C 200.38404846191406 200.42111206054688 200.3240509033203 200.2244415283203 200.3240509033203 200.03778076171875 C 200.3240509033203 199.804443359375 200.4007110595703 199.61111450195312 200.55404663085938 199.45777893066406 C 200.70738220214844 199.2977752685547 200.9007110595703 199.2177734375 201.13404846191406 199.2177734375 C 201.3607177734375 199.2177734375 201.557373046875 199.2977752685547 201.7240447998047 199.45777893066406 C 201.89071655273438 199.61111450195312 201.9740447998047 199.804443359375 201.9740447998047 200.03778076171875 C 201.9740447998047 200.2244415283203 201.91070556640625 200.42111206054688 201.78404235839844 200.62777709960938 L 201.78404235839844 202.2177734375 C 202.37071228027344 201.19778442382812 203.08071899414062 200.44444274902344 203.91404724121094 199.95777893066406 C 204.74737548828125 199.46444702148438 205.8107147216797 199.2177734375 207.1040496826172 199.2177734375 C 208.37071228027344 199.2177734375 209.42738342285156 199.4344482421875 210.2740478515625 199.86778259277344 C 211.11404418945312 200.29444885253906 211.79071044921875 200.85110473632812 212.30404663085938 201.53778076171875 C 212.8173828125 202.2244415283203 213.17738342285156 203.0044403076172 213.38404846191406 203.87777709960938 C 213.59071350097656 204.75111389160156 213.6940460205078 205.6477813720703 213.6940460205078 206.56777954101562 L 213.6940460205078 231.12777709960938 ZM 220.16055297851562 231.12777709960938 C 220.28721618652344 231.29444885253906 220.35055541992188 231.4711151123047 220.35055541992188 231.65777587890625 C 220.35055541992188 231.89111328125 220.2705535888672 232.08444213867188 220.1105499267578 232.23777770996094 C 219.95721435546875 232.3977813720703 219.76722717285156 232.477783203125 219.54055786132812 232.477783203125 C 219.30722045898438 232.477783203125 219.1072235107422 232.3977813720703 218.9405517578125 232.23777770996094 C 218.77389526367188 232.08444213867188 218.6905517578125 231.89111328125 218.6905517578125 231.65777587890625 C 218.6905517578125 231.4711151123047 218.75389099121094 231.29444885253906 218.88055419921875 231.12777709960938 L 218.88055419921875 200.62777709960938 C 218.75389099121094 200.42111206054688 218.6905517578125 200.2244415283203 218.6905517578125 200.03778076171875 C 218.6905517578125 199.804443359375 218.77389526367188 199.61111450195312 218.9405517578125 199.45777893066406 C 219.1072235107422 199.2977752685547 219.30722045898438 199.2177734375 219.54055786132812 199.2177734375 C 219.76722717285156 199.2177734375 219.95721435546875 199.2977752685547 220.1105499267578 199.45777893066406 C 220.2705535888672 199.61111450195312 220.35055541992188 199.804443359375 220.35055541992188 200.03778076171875 C 220.35055541992188 200.2244415283203 220.28721618652344 200.42111206054688 220.16055297851562 200.62777709960938 L 220.16055297851562 231.12777709960938 M 220.16055297851562 192.15777587890625 C 220.28721618652344 192.28445434570312 220.35055541992188 192.45111083984375 220.35055541992188 192.65777587890625 C 220.35055541992188 192.89111328125 220.2705535888672 193.0911102294922 220.1105499267578 193.25778198242188 C 219.95721435546875 193.4244384765625 219.76722717285156 193.50778198242188 219.54055786132812 193.50778198242188 C 219.30722045898438 193.50778198242188 219.1072235107422 193.4244384765625 218.9405517578125 193.25778198242188 C 218.77389526367188 193.0911102294922 218.6905517578125 192.89111328125 218.6905517578125 192.65777587890625 C 218.6905517578125 192.45111083984375 218.75389099121094 192.28445434570312 218.88055419921875 192.15777587890625 L 218.88055419921875 190.31777954101562 C 218.75389099121094 190.11111450195312 218.6905517578125 189.91110229492188 218.6905517578125 189.7177734375 C 218.6905517578125 189.49111938476562 218.77389526367188 189.30111694335938 218.9405517578125 189.1477813720703 C 219.1072235107422 188.98777770996094 219.30722045898438 188.90777587890625 219.54055786132812 188.90777587890625 C 219.76722717285156 188.90777587890625 219.95721435546875 188.98777770996094 220.1105499267578 189.1477813720703 C 220.2705535888672 189.30111694335938 220.35055541992188 189.49111938476562 220.35055541992188 189.7177734375 C 220.35055541992188 189.91110229492188 220.28721618652344 190.11111450195312 220.16055297851562 190.31777954101562 L 220.16055297851562 192.15777587890625 ZM 236.158935546875 230.56777954101562 C 236.34561157226562 230.4411163330078 236.5355987548828 230.37777709960938 236.72894287109375 230.37777709960938 C 236.95559692382812 230.37777709960938 237.1522674560547 230.4611053466797 237.31893920898438 230.62777709960938 C 237.48561096191406 230.79444885253906 237.56893920898438 230.99110412597656 237.56893920898438 231.2177734375 C 237.56893920898438 231.45111083984375 237.48561096191406 231.64443969726562 237.31893920898438 231.7977752685547 C 237.1522674560547 231.95777893066406 236.95559692382812 232.03778076171875 236.72894287109375 232.03778076171875 C 236.5355987548828 232.03778076171875 236.34561157226562 231.9744415283203 236.158935546875 231.8477783203125 L 225.158935546875 231.8477783203125 C 225.0389404296875 231.9744415283203 224.86227416992188 232.03778076171875 224.62893676757812 232.03778076171875 C 224.4022674560547 232.03778076171875 224.2089385986328 231.95777893066406 224.04893493652344 231.7977752685547 C 223.89559936523438 231.64443969726562 223.81893920898438 231.45111083984375 223.81893920898438 231.2177734375 C 223.81893920898438 230.84445190429688 223.96560668945312 230.58444213867188 224.25894165039062 230.43777465820312 L 235.59893798828125 201.12777709960938 L 225.158935546875 201.12777709960938 C 225.0389404296875 201.2544403076172 224.86227416992188 201.31777954101562 224.62893676757812 201.31777954101562 C 224.4022674560547 201.31777954101562 224.2089385986328 201.2344512939453 224.04893493652344 201.06777954101562 C 223.89559936523438 200.90110778808594 223.81893920898438 200.70111083984375 223.81893920898438 200.4677734375 C 223.81893920898438 200.24111938476562 223.89559936523438 200.05111694335938 224.04893493652344 199.8977813720703 C 224.2089385986328 199.73777770996094 224.4022674560547 199.65777587890625 224.62893676757812 199.65777587890625 C 224.86227416992188 199.65777587890625 225.0389404296875 199.7211151123047 225.158935546875 199.8477783203125 L 236.158935546875 199.8477783203125 C 236.34561157226562 199.7211151123047 236.5355987548828 199.65777587890625 236.72894287109375 199.65777587890625 C 236.95559692382812 199.65777587890625 237.1522674560547 199.73777770996094 237.31893920898438 199.8977813720703 C 237.48561096191406 200.05111694335938 237.56893920898438 200.24111938476562 237.56893920898438 200.4677734375 C 237.56893920898438 200.6811065673828 237.51560974121094 200.86111450195312 237.408935546875 201.00778198242188 C 237.30894470214844 201.1477813720703 237.17559814453125 201.25111389160156 237.00894165039062 201.31777954101562 L 225.658935546875 230.56777954101562 L 236.158935546875 230.56777954101562 ZM 254.0355682373047 230.93777465820312 C 254.3289031982422 231.08444213867188 254.47557067871094 231.32444763183594 254.47557067871094 231.65777587890625 C 254.47557067871094 231.89111328125 254.39224243164062 232.08444213867188 254.22557067871094 232.23777770996094 C 254.05889892578125 232.3977813720703 253.85890197753906 232.477783203125 253.6255645751953 232.477783203125 C 253.39889526367188 232.477783203125 253.2089080810547 232.3977813720703 253.05557250976562 232.23777770996094 C 252.89556884765625 232.08444213867188 252.81556701660156 231.89111328125 252.81556701660156 231.65777587890625 L 252.81556701660156 231.40777587890625 L 245.2555694580078 214.81777954101562 L 242.3755645751953 219.62777709960938 L 242.3755645751953 231.12777709960938 C 242.50222778320312 231.29444885253906 242.56556701660156 231.4711151123047 242.56556701660156 231.65777587890625 C 242.56556701660156 231.89111328125 242.48223876953125 232.08444213867188 242.31556701660156 232.23777770996094 C 242.14889526367188 232.3977813720703 241.95223999023438 232.477783203125 241.72557067871094 232.477783203125 C 241.4922332763672 232.477783203125 241.2989044189453 232.3977813720703 241.14556884765625 232.23777770996094 C 240.9922332763672 232.08444213867188 240.9155731201172 231.89111328125 240.9155731201172 231.65777587890625 C 240.9155731201172 231.4711151123047 240.97557067871094 231.29444885253906 241.09556579589844 231.12777709960938 L 241.09556579589844 187.81777954101562 C 240.97557067871094 187.631103515625 240.9155731201172 187.44444274902344 240.9155731201172 187.25778198242188 C 240.9155731201172 187.02444458007812 240.9922332763672 186.82444763183594 241.14556884765625 186.65777587890625 C 241.2989044189453 186.49111938476562 241.4922332763672 186.40777587890625 241.72557067871094 186.40777587890625 C 241.95223999023438 186.40777587890625 242.14889526367188 186.49111938476562 242.31556701660156 186.65777587890625 C 242.48223876953125 186.82444763183594 242.56556701660156 187.02444458007812 242.56556701660156 187.25778198242188 C 242.56556701660156 187.44444274902344 242.50222778320312 187.631103515625 242.3755645751953 187.81777954101562 L 242.3755645751953 217.12777709960938 L 252.6255645751953 200.15777587890625 L 252.6255645751953 200.03778076171875 C 252.6255645751953 199.804443359375 252.70556640625 199.61111450195312 252.86557006835938 199.45777893066406 C 253.01890563964844 199.2977752685547 253.2122344970703 199.2177734375 253.44557189941406 199.2177734375 C 253.6722412109375 199.2177734375 253.868896484375 199.2977752685547 254.0355682373047 199.45777893066406 C 254.20223999023438 199.61111450195312 254.2855682373047 199.804443359375 254.2855682373047 200.03778076171875 C 254.2855682373047 200.45111083984375 254.08889770507812 200.73110961914062 253.69557189941406 200.87777709960938 L 246.09556579589844 213.4677734375 L 254.0355682373047 230.93777465820312 ZM 258.064697265625 225.12777709960938 C 258.064697265625 225.88111877441406 258.1546936035156 226.62110900878906 258.3346862792969 227.3477783203125 C 258.5080261230469 228.07444763183594 258.79803466796875 228.7244415283203 259.2047119140625 229.2977752685547 C 259.6113586425781 229.87110900878906 260.15802001953125 230.33444213867188 260.8446960449219 230.68777465820312 C 261.5313720703125 231.04110717773438 262.37469482421875 231.2177734375 263.37469482421875 231.2177734375 C 264.4013671875 231.2177734375 265.2580261230469 231.04110717773438 265.9447021484375 230.68777465820312 C 266.6313781738281 230.33444213867188 267.17803955078125 229.87110900878906 267.5846862792969 229.2977752685547 C 267.9913635253906 228.7244415283203 268.2780456542969 228.07444763183594 268.4447021484375 227.3477783203125 C 268.6113586425781 226.62110900878906 268.6947021484375 225.88111877441406 268.6947021484375 225.12777709960938 L 268.6947021484375 206.56777954101562 C 268.6947021484375 205.83444213867188 268.6113586425781 205.1044464111328 268.4447021484375 204.37777709960938 C 268.2780456542969 203.65110778808594 267.9913635253906 203.00111389160156 267.5846862792969 202.4277801513672 C 267.17803955078125 201.8544464111328 266.6313781738281 201.3844451904297 265.9447021484375 201.0177764892578 C 265.2580261230469 200.65110778808594 264.4013671875 200.4677734375 263.37469482421875 200.4677734375 C 262.37469482421875 200.4677734375 261.5313720703125 200.65110778808594 260.8446960449219 201.0177764892578 C 260.15802001953125 201.3844451904297 259.6113586425781 201.8544464111328 259.2047119140625 202.4277801513672 C 258.79803466796875 203.00111389160156 258.5080261230469 203.65110778808594 258.3346862792969 204.37777709960938 C 258.1546936035156 205.1044464111328 258.064697265625 205.83444213867188 258.064697265625 206.56777954101562 L 258.064697265625 225.12777709960938 M 269.9747009277344 225.12777709960938 C 269.9747009277344 226.0477752685547 269.86468505859375 226.94444274902344 269.6446838378906 227.81777954101562 C 269.4247131347656 228.6911163330078 269.0546875 229.4711151123047 268.5346984863281 230.15777587890625 C 268.01470947265625 230.84445190429688 267.3380432128906 231.40110778808594 266.50469970703125 231.82777404785156 C 265.6713562011719 232.2611083984375 264.6280212402344 232.477783203125 263.37469482421875 232.477783203125 C 262.1280212402344 232.477783203125 261.08135986328125 232.2611083984375 260.2347106933594 231.82777404785156 C 259.3946838378906 231.40110778808594 258.718017578125 230.84445190429688 258.2047119140625 230.15777587890625 C 257.6980285644531 229.4711151123047 257.3346862792969 228.6911163330078 257.11468505859375 227.81777954101562 C 256.8946838378906 226.94444274902344 256.7846984863281 226.0477752685547 256.7846984863281 225.12777709960938 L 256.7846984863281 206.56777954101562 C 256.7846984863281 205.6477813720703 256.8946838378906 204.75111389160156 257.11468505859375 203.87777709960938 C 257.3346862792969 203.0044403076172 257.6980285644531 202.2244415283203 258.2047119140625 201.53778076171875 C 258.718017578125 200.85110473632812 259.3946838378906 200.29444885253906 260.2347106933594 199.86778259277344 C 261.08135986328125 199.4344482421875 262.1280212402344 199.2177734375 263.37469482421875 199.2177734375 C 264.6280212402344 199.2177734375 265.6713562011719 199.4344482421875 266.50469970703125 199.86778259277344 C 267.3380432128906 200.29444885253906 268.01470947265625 200.85110473632812 268.5346984863281 201.53778076171875 C 269.0546875 202.2244415283203 269.4247131347656 203.0044403076172 269.6446838378906 203.87777709960938 C 269.86468505859375 204.75111389160156 269.9747009277344 205.6477813720703 269.9747009277344 206.56777954101562 L 269.9747009277344 225.12777709960938 Z" transform="matrix(1, 0, 0, 1, -163.11978149414062, -185.5946807861328)" style="fill: rgb(54, 54, 54); white-space: pre; color: rgb(51, 51, 51);"/></svg>